<svg xmlns:xlink="http://www.w3.org/1999/xlink" xmlns="http://www.w3.org/2000/svg" width="32" height="32" viewBox="0 0 32 32" fill="none">
<g clip-path="url(#clip0_622_7960)">
<path d="M16 13.1425C15.4349 13.1427 14.8825 13.3105 14.4128 13.6246C13.943 13.9387 13.5769 14.3851 13.3608 14.9072C13.1447 15.4294 13.0882 16.0039 13.1986 16.5581C13.309 17.1124 13.5812 17.6214 13.9809 18.0209C14.3806 18.4205 14.8897 18.6925 15.444 18.8027C15.9983 18.9128 16.5728 18.8562 17.0948 18.6399C17.6169 18.4236 18.0631 18.0573 18.3771 17.5874C18.691 17.1175 18.8586 16.5651 18.8586 16C18.858 15.2421 18.5566 14.5155 18.0206 13.9797C17.4846 13.4439 16.7579 13.1428 16 13.1425ZM22.6809 10.9461C22.5354 10.5774 22.3158 10.2426 22.0355 9.96234C21.7553 9.6821 21.4204 9.46243 21.0518 9.31696C19.9268 8.87286 17.2482 8.9725 16 8.9725C14.7518 8.9725 12.0759 8.86911 10.9477 9.31696C10.579 9.46243 10.2442 9.6821 9.96395 9.96234C9.68371 10.2426 9.46404 10.5774 9.31857 10.9461C8.875 12.0711 8.97411 14.7523 8.97411 15.9995C8.97411 17.2466 8.875 19.9246 9.32071 21.0534C9.46618 21.422 9.68585 21.7569 9.96609 22.0371C10.2463 22.3174 10.5812 22.537 10.9498 22.6825C12.0748 23.1266 14.7534 23.027 16.0021 23.027C17.2509 23.027 19.9257 23.1304 21.0539 22.6825C21.4226 22.537 21.7574 22.3174 22.0377 22.0371C22.3179 21.7569 22.5376 21.422 22.683 21.0534C23.1304 19.9284 23.0275 17.2471 23.0275 16C23.0275 14.7529 23.1304 12.0754 22.683 10.9466L22.6809 10.9461ZM16 20.3929C15.1312 20.3929 14.2819 20.1352 13.5595 19.6525C12.8371 19.1698 12.274 18.4838 11.9415 17.6811C11.609 16.8784 11.5221 15.9951 11.6916 15.143C11.861 14.2909 12.2794 13.5081 12.8938 12.8938C13.5081 12.2794 14.2909 11.861 15.143 11.6916C15.9951 11.5221 16.8784 11.609 17.6811 11.9415C18.4838 12.274 19.1698 12.8371 19.6525 13.5595C20.1352 14.2819 20.3929 15.1312 20.3929 16C20.3936 16.5771 20.2804 17.1486 20.0599 17.6819C19.8394 18.2152 19.5158 18.6997 19.1078 19.1078C18.6997 19.5158 18.2152 19.8394 17.6819 20.0599C17.1486 20.2804 16.5771 20.3936 16 20.3929ZM20.5739 12.4482C20.3711 12.4483 20.1728 12.3883 20.0041 12.2757C19.8354 12.1631 19.7039 12.003 19.6262 11.8156C19.5486 11.6283 19.5282 11.4221 19.5677 11.2231C19.6072 11.0242 19.7048 10.8415 19.8482 10.698C19.9915 10.5546 20.1742 10.4568 20.3732 10.4172C20.5721 10.3776 20.7783 10.3979 20.9657 10.4755C21.153 10.5531 21.3132 10.6845 21.4259 10.8531C21.5386 11.0218 21.5988 11.22 21.5988 11.4229C21.5993 11.5575 21.5733 11.691 21.5221 11.8156C21.471 11.9402 21.3958 12.0535 21.3008 12.149C21.2058 12.2444 21.0928 12.3202 20.9685 12.3719C20.8441 12.4236 20.7108 12.4503 20.5761 12.4504L20.5739 12.4482ZM25.4286 4H6.57143C5.88944 4 5.23539 4.27092 4.75315 4.75315C4.27092 5.23539 4 5.88944 4 6.57143V25.4286C4 26.1106 4.27092 26.7646 4.75315 27.2468C5.23539 27.7291 5.88944 28 6.57143 28H25.4286C26.1106 28 26.7646 27.7291 27.2468 27.2468C27.7291 26.7646 28 26.1106 28 25.4286V6.57143C28 5.88944 27.7291 5.23539 27.2468 4.75315C26.7646 4.27092 26.1106 4 25.4286 4ZM24.5114 19.5357C24.4423 20.9088 24.1289 22.1254 23.1266 23.125C22.1243 24.1246 20.9088 24.4445 19.5373 24.5098C18.1225 24.5896 13.8807 24.5896 12.4659 24.5098C11.0929 24.4407 9.88054 24.1268 8.87661 23.125C7.87268 22.1232 7.55714 20.9061 7.49179 19.5357C7.41196 18.1204 7.41196 13.878 7.49179 12.4643C7.56089 11.0912 7.87054 9.87464 8.87661 8.875C9.88268 7.87536 11.0982 7.55929 12.4659 7.49393C13.8807 7.41411 18.1225 7.41411 19.5373 7.49393C20.9104 7.56304 22.1264 7.87696 23.1266 8.87875C24.1268 9.88054 24.4461 11.0977 24.5114 12.4707C24.5913 13.8807 24.5913 18.1193 24.5114 19.5357Z" fill="white"/>
</g>
<defs>
<clipPath id="clip0_622_7960">
<rect x="4" y="4" width="24" height="24" rx="3" fill="white"/>
</clipPath>
</defs>
</svg>