<svg xmlns:xlink="http://www.w3.org/1999/xlink" xmlns="http://www.w3.org/2000/svg" width="32" height="32" viewBox="0 0 32 32" fill="none">
<path fill-rule="evenodd" clip-rule="evenodd" d="M7 4C5.34315 4 4 5.34315 4 7V25C4 26.6569 5.34315 28 7 28H25C26.6569 28 28 26.6569 28 25V7C28 5.34315 26.6569 4 25 4H7ZM9.03658 15.3823C13.0854 13.6183 15.787 12.455 17.1378 11.8925C20.9939 10.2882 21.7978 10.0087 22.3187 10C22.5106 9.99592 22.6989 10.0524 22.8569 10.1615C22.9678 10.2578 23.0385 10.3922 23.0548 10.5382C23.0825 10.7191 23.0901 10.9026 23.0774 11.0851C22.869 13.2815 21.9645 18.6099 21.5044 21.0701C21.3099 22.1119 20.9262 22.4591 20.5547 22.4938C19.9175 22.5529 19.3983 22.1848 18.8236 21.775C18.8074 21.7635 18.7912 21.7519 18.7749 21.7402C18.639 21.6433 18.499 21.5434 18.3549 21.4504C17.7159 21.0302 17.2229 20.6951 16.7298 20.3583C16.2766 20.0492 15.8217 19.7419 15.254 19.3669C14.0751 18.5891 14.5682 18.1133 15.2279 17.4779C15.3385 17.372 15.4473 17.2644 15.5543 17.155C15.5939 17.114 15.7589 16.9602 15.9997 16.7359C16.0547 16.6846 16.1136 16.6297 16.1759 16.5716L16.2328 16.5186L16.233 16.5185C17.3225 15.5047 19.3298 13.6369 19.381 13.4169C19.3897 13.3804 19.3983 13.2433 19.3167 13.1721C19.2369 13.0991 19.1153 13.1235 19.0285 13.1443C18.907 13.1721 16.9537 14.4621 13.1705 17.0161C12.6167 17.398 12.1149 17.5821 11.6635 17.5716C11.1687 17.5612 10.2137 17.2921 9.50536 17.0612L9.20152 16.9657L9.19917 16.965L9.19916 16.965C8.47984 16.7379 7.9515 16.5711 8.00353 16.1497C8.03479 15.8997 8.38029 15.6427 9.03658 15.3823Z" fill="white"/>
</svg>