<svg xmlns:xlink="http://www.w3.org/1999/xlink" xmlns="http://www.w3.org/2000/svg" width="32" height="32" viewBox="0 0 32 32" fill="none">
<path fill-rule="evenodd" clip-rule="evenodd" d="M7 4C5.34315 4 4 5.34315 4 7V25C4 26.6569 5.34315 28 7 28H25C26.6569 28 28 26.6569 28 25V7C28 5.34315 26.6569 4 25 4H7ZM24 16C24 11.5816 20.4184 8 16 8C11.5816 8 8.00001 11.5816 8.00001 16C7.99807 17.4574 8.39597 18.8874 9.15041 20.1344L8.43681 22.56L8.41601 22.6472C8.392 22.7827 8.403 22.9221 8.44796 23.0521C8.49292 23.1822 8.57035 23.2986 8.67292 23.3904C8.77548 23.4821 8.89978 23.5461 9.03402 23.5764C9.16826 23.6066 9.30801 23.6021 9.44001 23.5632L11.8656 22.8496L12.1096 22.992C13.299 23.655 14.6384 24.002 16 24C20.4184 24 24 20.4184 24 16ZM12.7427 10.4903C13.7292 9.90725 14.8541 9.59979 16 9.6C16.9927 9.60028 17.9716 9.83146 18.8595 10.2753C19.7475 10.7191 20.52 11.3633 21.116 12.1571C21.712 12.9509 22.1153 13.8724 22.2938 14.8489C22.4723 15.8253 22.4213 16.83 22.1447 17.7833C21.8681 18.7366 21.3736 19.6125 20.7002 20.3418C20.0267 21.0711 19.1929 21.6338 18.2646 21.9853C17.3363 22.3368 16.3389 22.4676 15.3513 22.3672C14.3638 22.2669 13.4131 21.9382 12.5744 21.4072C12.2888 21.2256 11.9288 21.1632 11.5824 21.2656L10.3816 21.6184L10.7344 20.4176L10.7656 20.2872C10.8192 19.9824 10.7512 19.6752 10.5928 19.4256C9.97947 18.4577 9.63725 17.3428 9.60189 16.1975C9.56654 15.0521 9.83934 13.9183 10.3918 12.9144C10.9443 11.9104 11.7562 11.0733 12.7427 10.4903ZM13.9632 12.1047C13.8672 12.0942 13.7702 12.1088 13.6816 12.1472C12.9416 12.464 12.3088 13.2664 12.3392 14.1016C12.3401 14.1216 12.3411 14.1416 12.3424 14.1616L12.3528 14.3016L12.3728 14.468L12.4048 14.6584C12.544 15.3976 12.9632 16.5824 14.1904 17.8104C15.4184 19.0376 16.6032 19.4568 17.3424 19.596L17.5328 19.628C17.5616 19.6321 17.5904 19.6358 17.6192 19.6392L17.772 19.6536L17.8992 19.6616C18.7328 19.692 19.5352 19.0624 19.852 18.3232C19.8916 18.2317 19.9059 18.1312 19.8933 18.0323C19.8808 17.9333 19.842 17.8396 19.7808 17.7608C19.452 17.3408 19.0368 17.0096 18.6048 16.7016L18.1704 16.3984C18.0495 16.3148 17.9009 16.2812 17.7558 16.3048C17.6106 16.3284 17.4803 16.4072 17.392 16.5248L16.9112 17.2568L16.8808 17.2928C16.8232 17.3448 16.7384 17.3576 16.668 17.3176C16.3432 17.1312 15.8688 16.8144 15.5272 16.4736C15.1864 16.1328 14.8896 15.6792 14.7216 15.3752C14.7009 15.3365 14.6949 15.2916 14.7047 15.2487C14.7146 15.2059 14.7396 15.1682 14.7752 15.1424L15.5144 14.5936L15.5744 14.5328C15.6556 14.4376 15.7032 14.3184 15.7098 14.1934C15.7165 14.0685 15.6818 13.9449 15.6112 13.8416L15.4888 13.6616L15.2272 13.2824C14.952 12.8968 14.632 12.5016 14.2288 12.2072C14.1507 12.1506 14.0591 12.1152 13.9632 12.1047Z" fill="white"/>
</svg>