<svg width="386" height="452" viewBox="0 0 386 452" fill="none" xmlns="http://www.w3.org/2000/svg">
<path d="M140.232 3.81557L28.5488 342.896M164.927 11.9494L53.2437 351.03M189.622 20.0832L77.9387 359.164M214.317 28.217L102.634 367.298M239.012 36.3508L127.329 375.432M263.707 44.4846L152.024 383.565M288.402 52.6184L176.719 391.699M313.097 60.7521L201.414 399.833M337.792 68.8859L226.108 407.967M362.487 77.0197L250.803 416.101M387.182 85.1535L275.498 424.234M411.877 93.2873L300.193 432.368M436.572 101.421L324.888 440.502M461.267 109.555L349.583 448.636M470.765 112.683L131.684 1M462.631 137.378L123.55 25.695M454.497 162.073L115.416 50.3899M446.363 186.768L107.282 75.0849M438.229 211.463L99.1486 99.7799M430.096 236.158L91.0148 124.475M421.962 260.853L82.881 149.17M413.828 285.548L74.7472 173.865M405.694 310.243L66.6134 198.56M397.56 334.938L58.4796 223.255M389.427 359.633L50.3458 247.95M381.293 384.328L42.212 272.645M373.159 409.023L34.0782 297.34M365.025 433.718L25.9444 322.035" stroke="url(#paint0_radial_867_5756)"/>
<defs>
<radialGradient id="paint0_radial_867_5756" cx="0" cy="0" r="1" gradientUnits="userSpaceOnUse" gradientTransform="translate(95.0007 150.5) rotate(53.2053) scale(304.7 353.749)">
<stop stop-color="#4E4E4E" stop-opacity="0.17"/>
<stop offset="1" stop-color="#282828" stop-opacity="0"/>
</radialGradient>
</defs>
</svg>
