<svg width="341" height="452" viewBox="0 0 341 452" fill="none" xmlns="http://www.w3.org/2000/svg">
<path d="M10.2319 3.81557L-101.451 342.896M34.9268 11.9494L-76.7565 351.03M59.6218 20.0832L-52.0615 359.164M84.3168 28.217L-27.3665 367.298M109.012 36.3508L-2.67155 375.432M133.707 44.4846L22.0234 383.565M158.402 52.6184L46.7184 391.699M183.097 60.7521L71.4133 399.833M207.792 68.8859L96.1083 407.967M232.487 77.0197L120.803 416.101M257.182 85.1535L145.498 424.234M281.877 93.2873L170.193 432.368M306.571 101.421L194.888 440.502M331.266 109.555L219.583 448.636M340.764 112.683L1.68361 1M332.631 137.378L-6.45019 25.695M324.497 162.073L-14.584 50.3899M316.363 186.768L-22.7178 75.0849M308.229 211.463L-30.8516 99.7799M300.095 236.158L-38.9854 124.475M291.962 260.853L-47.1192 149.17M283.828 285.548L-55.253 173.865M275.694 310.243L-63.3868 198.56M267.56 334.938L-71.5206 223.255M259.426 359.633L-79.6544 247.95M251.293 384.328L-87.7882 272.645M243.159 409.023L-95.922 297.34M235.025 433.718L-104.056 322.035" stroke="url(#paint0_radial_867_5755)"/>
<defs>
<radialGradient id="paint0_radial_867_5755" cx="0" cy="0" r="1" gradientUnits="userSpaceOnUse" gradientTransform="translate(-34.9995 150.5) rotate(53.2053) scale(304.7 353.749)">
<stop stop-color="#4E4E4E" stop-opacity="0.17"/>
<stop offset="1" stop-color="#282828" stop-opacity="0"/>
</radialGradient>
</defs>
</svg>
